<?xml version="1.0" standalone="no"?>
<!DOCTYPE svg PUBLIC "-//W3C//DTD SVG 20010904//EN"
 "http://www.w3.org/TR/2001/REC-SVG-20010904/DTD/svg10.dtd">
<svg version="1.0" xmlns="http://www.w3.org/2000/svg"
 width="131.000000pt" height="28.000000pt" viewBox="0 0 131.000000 28.000000"
 preserveAspectRatio="xMidYMid meet">

<g transform="translate(0.000000,28.000000) scale(0.100000,-0.100000)"
fill="#000000" stroke="none">
<path d="M167 135 c-24 -49 -25 -55 -9 -55 10 0 26 14 36 31 l18 31 32 -31
c18 -17 36 -31 41 -31 6 0 22 25 38 55 26 53 27 55 7 55 -12 0 -24 -9 -30 -24
-14 -38 -26 -39 -63 -6 -19 16 -36 30 -39 30 -2 0 -16 -25 -31 -55z"/>
<path d="M354 158 c-9 -18 -24 -43 -32 -55 l-14 -23 78 0 79 0 28 49 c15 27
27 52 27 55 0 3 -34 6 -75 6 -74 0 -75 0 -91 -32z m110 -10 c-18 -33 -39 -48
-66 -48 -30 0 -34 10 -18 41 8 14 21 19 51 19 29 0 38 -3 33 -12z"/>
<path d="M517 141 c-32 -58 -32 -61 -9 -61 10 0 25 16 36 40 18 38 22 40 60
38 l41 -1 -38 -4 c-21 -2 -37 -7 -35 -11 11 -25 109 -102 129 -102 22 0 20 4
-21 40 -25 21 -39 39 -33 40 11 0 43 49 43 65 0 3 -33 5 -73 5 l-74 0 -26 -49z"/>
<path d="M706 175 c-4 -12 7 -15 68 -15 53 0 77 4 86 15 11 13 2 15 -68 15
-62 0 -81 -3 -86 -15z"/>
<path d="M860 138 c-26 -46 -28 -53 -13 -57 10 -2 24 6 31 18 12 17 24 21 72
21 60 0 56 -2 88 63 2 4 -30 7 -72 7 l-76 0 -30 -52z m113 15 c-13 -2 -33 -2
-45 0 -13 2 -3 4 22 4 25 0 35 -2 23 -4z"/>
<path d="M690 135 c-12 -14 -5 -16 65 -13 52 2 80 7 83 16 6 19 -132 17 -148
-3z"/>
<path d="M685 90 c3 -5 33 -10 65 -10 32 0 62 5 65 10 4 6 -20 10 -65 10 -45
0 -69 -4 -65 -10z"/>
</g>
</svg>
